<?xml version="1.0" encoding="UTF-8"?>
<svg version="1.1" xmlns="http://www.w3.org/2000/svg" width="905" height="905">
<path d="M0 0 C1.81158852 -0.01052147 1.81158852 -0.01052147 3.65977478 -0.02125549 C7.53624239 -0.03866275 11.41255723 -0.04510787 15.2890625 -0.046875 C16.27992167 -0.04753778 16.27992167 -0.04753778 17.29079819 -0.04821396 C37.33270629 -0.05524451 57.05321705 0.25253388 76.9140625 3.203125 C78.14640625 3.38004883 79.37875 3.55697266 80.6484375 3.73925781 C160.26837401 15.40422321 234.86471137 47.18305636 297.9140625 97.203125 C298.7194043 97.84072754 298.7194043 97.84072754 299.54101562 98.49121094 C305.31892338 103.08744337 310.88335488 107.88608581 316.33203125 112.8671875 C317.72012419 114.12298112 319.11396626 115.37315877 320.53979492 116.5859375 C326.69550091 121.8422421 332.41185191 127.51479585 338.1315918 133.23535156 C339.83949306 134.94107098 341.55524295 136.63861527 343.27148438 138.3359375 C349.15951955 144.19406688 354.6922734 150.14277141 359.86499023 156.65673828 C361.852535 159.12666463 363.92029582 161.48536102 366.046875 163.8359375 C385.26904014 185.26034575 401.24500026 210.95293313 414.9140625 236.203125 C415.64351074 237.53077881 415.64351074 237.53077881 416.38769531 238.88525391 C443.54897859 288.46915602 460.7645726 343.99432049 466.9140625 400.203125 C467.00019806 400.98274597 467.08633362 401.76236694 467.17507935 402.56561279 C468.95141234 419.11503349 469.27506223 435.56878175 469.2265625 452.203125 C469.22382828 454.15235367 469.22382828 454.15235367 469.22103882 456.14096069 C469.17572157 475.33968034 468.72954736 494.18418141 465.9140625 513.203125 C465.74245605 514.41419922 465.57084961 515.62527344 465.39404297 516.87304688 C453.89565689 596.48832422 421.90081766 671.19576489 371.9140625 734.203125 C371.48899414 734.74001953 371.06392578 735.27691406 370.62597656 735.83007812 C366.02974413 741.60798588 361.23110169 747.17241738 356.25 752.62109375 C354.99420638 754.00918669 353.74402873 755.40302876 352.53125 756.82885742 C347.2749454 762.98456341 341.60239165 768.70091441 335.88183594 774.4206543 C334.17611652 776.12855556 332.47857223 777.84430545 330.78125 779.56054688 C324.9223689 785.4493376 318.97309015 790.98299095 312.45776367 796.15576172 C310.00147522 798.13276863 307.6593659 800.19072278 305.32421875 802.30859375 C300.85978738 806.31696507 296.16861323 809.94310972 291.3515625 813.515625 C290.47878662 814.16515137 289.60601074 814.81467773 288.70678711 815.48388672 C251.71460683 842.87274982 211.39353896 864.94870935 167.9140625 880.203125 C166.50157227 880.71069336 166.50157227 880.71069336 165.06054688 881.22851562 C137.10470817 891.24969701 108.2765816 897.63132042 78.93084717 901.90887451 C77.05480963 902.18258988 75.17993807 902.46426429 73.30517578 902.74658203 C35.35417207 908.20532517 -6.18584724 907.91044478 -44.0859375 902.203125 C-45.46206308 902.00234718 -46.83820302 901.80166782 -48.21435547 901.60107422 C-90.41979349 895.35799554 -131.22390892 883.92872611 -170.0859375 866.203125 C-171.19130859 865.70055176 -172.29667969 865.19797852 -173.43554688 864.68017578 C-213.311336 846.38952294 -251.06538418 822.19389354 -283.50390625 792.5390625 C-284.89199919 791.28326888 -286.28584126 790.03309123 -287.71166992 788.8203125 C-293.86737591 783.5640079 -299.58372691 777.89145415 -305.3034668 772.17089844 C-307.01136806 770.46517902 -308.72711795 768.76763473 -310.44335938 767.0703125 C-316.33139455 761.21218312 -321.8641484 755.26347859 -327.03686523 748.74951172 C-329.02441 746.27958537 -331.09217082 743.92088898 -333.21875 741.5703125 C-352.44091514 720.14590425 -368.41687526 694.45331687 -382.0859375 669.203125 C-382.57223633 668.31802246 -383.05853516 667.43291992 -383.55957031 666.52099609 C-412.53854887 613.61882569 -429.20044832 555.07650961 -435.0859375 495.203125 C-435.17182129 494.33454865 -435.25770508 493.46597229 -435.34619141 492.57107544 C-436.04684788 484.95229958 -436.26147491 477.39068276 -436.2890625 469.7421875 C-436.29476257 468.47635834 -436.30046265 467.21052917 -436.30633545 465.90634155 C-436.31573474 463.2321212 -436.32265553 460.55801147 -436.32617188 457.88378906 C-436.33262708 453.90152484 -436.36678609 449.91964307 -436.3984375 445.9375 C-436.49442506 422.75107223 -434.80842412 399.81122182 -430.7734375 376.953125 C-430.56106445 375.72464844 -430.34869141 374.49617188 -430.12988281 373.23046875 C-417.00566939 299.24723951 -385.75878826 230.03337126 -339.0859375 171.203125 C-338.66086914 170.66623047 -338.23580078 170.12933594 -337.79785156 169.57617188 C-333.20161913 163.79826412 -328.40297669 158.23383262 -323.421875 152.78515625 C-322.16608138 151.39706331 -320.91590373 150.00322124 -319.703125 148.57739258 C-314.4468204 142.42168659 -308.77426665 136.70533559 -303.05371094 130.9855957 C-301.34799152 129.27769444 -299.65044723 127.56194455 -297.953125 125.84570312 C-292.09499562 119.95766795 -286.14629109 114.4249141 -279.63232422 109.25219727 C-277.16239787 107.2646525 -274.80370148 105.19689168 -272.453125 103.0703125 C-251.02871675 83.84814736 -225.33612937 67.87218724 -200.0859375 54.203125 C-199.20083496 53.71682617 -198.31573242 53.23052734 -197.40380859 52.72949219 C-138.07272476 20.22885577 -67.96192113 0.26553447 0 0 Z " fill="#000000" transform="translate(436.0859375,-0.203125)"/>
<path d="M0 0 C53.46 0 106.92 0 162 0 C165.82213619 7.64427237 169.47107073 15.16315238 172.7734375 23.015625 C173.20979019 24.04402496 173.64614288 25.07242493 174.09571838 26.13198853 C175.03477836 28.34622199 175.97213543 30.5611783 176.90792847 32.77679443 C179.19622138 38.19419331 181.49522475 43.60704637 183.7929287 49.02045822 C184.59458831 50.90961835 185.39577079 52.79898024 186.19685364 54.68838501 C191.74247329 67.76541492 197.33692928 80.82142051 202.9375 93.875 C203.93703277 96.20523186 204.93654441 98.53547278 205.93603516 100.86572266 C207.44275836 104.37852883 208.94951683 107.89131981 210.45648193 111.40402222 C214.02383893 119.7204764 217.58532102 128.03943141 221.14453125 136.359375 C230.78673052 158.89381068 240.46272282 181.41173186 250.2633667 203.87774658 C258.38793104 222.50944667 266.36197042 241.20430079 274.31274414 259.91064453 C274.77754181 261.00379974 275.24233948 262.09695496 275.72122192 263.22323608 C276.6187452 265.33713932 277.51429004 267.45188384 278.40768433 269.5675354 C280.21480409 273.84156686 282.02898633 278.1056563 283.96899414 282.32128906 C286.99648155 288.97666111 288.97768977 294.40381565 288.6875 301.75 C288.67332031 302.61633057 288.65914063 303.48266113 288.64453125 304.37524414 C288.36942898 311.87641016 286.9972222 319.09731813 285.5 326.4375 C284.66096944 330.62389402 283.82819057 334.81145001 283 339 C282.77111084 340.09248047 282.77111084 340.09248047 282.53759766 341.20703125 C281.31377805 347.58873025 282.14880363 351.97624198 285.64453125 357.390625 C288.58043905 361.57020401 291.75552032 365.53671404 294.98486328 369.49169922 C298.31811923 373.64070232 301.42904754 377.94940605 304.5625 382.25 C305.68823209 383.77646219 306.81450639 385.3025247 307.94140625 386.828125 C308.96543583 388.21544085 309.98438438 389.60651273 311 391 C311.63277611 391.72970505 311.63277611 391.72970505 312.27833557 392.47415161 C316.32331449 397.42679863 316.83468831 401.48360765 316.70703125 407.7734375 C316.69589798 408.72495697 316.68476471 409.67647644 316.67329407 410.65682983 C316.24597279 423.02024249 312.90452127 434.7489929 309.6875 446.625 C309.08412281 448.92774074 308.48320019 451.23112608 307.88476562 453.53515625 C306.78286961 457.76540975 305.66678735 461.99131617 304.53393555 466.21337891 C302.96618118 472.12757818 301.48394559 478.06421763 300 484 C274.26 484 248.52 484 222 484 C212.8013746 465.60274921 212.8013746 465.60274921 209.80859375 459.06640625 C209.46144318 458.31371964 209.1142926 457.56103302 208.75662231 456.78553772 C207.64764023 454.37904876 206.54246192 451.97083713 205.4375 449.5625 C204.6452474 447.84091565 203.85284548 446.11940001 203.06030273 444.39794922 C197.89063345 433.15993034 192.76590218 421.90178275 187.66055298 410.63442993 C182.37707086 398.9775048 177.01380631 387.35857401 171.625 375.75 C156.31160345 342.76091131 141.17098027 309.69261224 126.08152771 276.60055542 C118.20710135 259.33295473 110.27466626 242.09357612 102.28356934 224.87963867 C96.46853923 212.35163071 90.69496164 199.80564522 84.96337891 187.23925781 C79.67449963 175.64450894 74.34685215 164.06812363 69 152.5 C62.97558168 139.46530569 56.98178067 126.4172023 51.02050781 113.35351562 C45.7114856 101.72121023 40.36424898 90.10693239 35 78.5 C27.51247003 62.29730818 20.06746885 46.07565876 12.66357422 29.83457947 C10.7108681 25.55265157 8.74871706 21.27517277 6.78125 17 C6.30494141 15.96174072 5.82863281 14.92348145 5.33789062 13.85375977 C4.47491829 11.97270055 3.60923284 10.09288252 2.74023438 8.21459961 C2.37220703 7.41030518 2.00417969 6.60601074 1.625 5.77734375 C1.30789062 5.08890381 0.99078125 4.40046387 0.6640625 3.69116211 C0 2 0 2 0 0 Z " fill="#FEFEFE" transform="translate(151,210)"/>
<path d="M0 0 C54.78 0 109.56 0 166 0 C160.2627955 13.76929081 160.2627955 13.76929081 157.25 20.0625 C156.91519623 20.76820129 156.58039246 21.47390259 156.23544312 22.20098877 C155.52539524 23.697096 154.8141471 25.19263413 154.10174561 26.68762207 C152.19979319 30.67949894 150.30743833 34.67592496 148.4140625 38.671875 C148.03504791 39.47123474 147.65603333 40.27059448 147.26553345 41.09417725 C143.40040209 49.25198161 139.60089431 57.43949861 135.81005859 65.63208008 C133.0203098 71.65722857 130.21791356 77.67599029 127.390625 83.68359375 C121.08616269 97.0828231 114.84312387 110.50319729 108.75 124 C102.31866372 138.24302137 95.64311995 152.36340159 88.91601562 166.46875 C83.78548985 177.22786694 78.71339986 188.01024676 73.71044922 198.8293457 C69.66967288 207.56683525 65.5911292 216.28601812 61.5 225 C56.25386098 236.17672415 51.0353439 247.36572154 45.84155273 258.56689453 C41.92678206 267.00836156 37.99890469 275.44360709 34.0625 283.875 C33.7718869 284.4974762 33.4812738 285.11995239 33.18185425 285.7612915 C31.7101065 288.91352964 30.23815508 292.06567261 28.76611328 295.21777344 C26.13425654 300.85365032 23.50419121 306.49036317 20.87399292 312.12701416 C19.41606887 315.25137712 17.95802854 318.37568581 16.5 321.5 C15.91666611 322.74999974 15.33333278 323.99999974 14.75 325.25 C-8 374 -8 374 -30.75 422.75 C-31.03868958 423.36862411 -31.32737915 423.98724823 -31.62481689 424.62461853 C-32.20874944 425.87589529 -32.79269315 427.12716685 -33.37664795 428.37843323 C-34.82590431 431.4838564 -36.27497314 434.58936679 -37.72363281 437.69506836 C-40.4566188 443.55364024 -43.19158566 449.411266 -45.93273926 455.26602173 C-47.22750412 458.03175803 -48.52126181 460.79796491 -49.81494141 463.56420898 C-50.43195055 464.88280425 -51.04945317 466.20116874 -51.66748047 467.51928711 C-52.52436129 469.34690827 -53.37940651 471.17538971 -54.234375 473.00390625 C-54.72131836 474.04361572 -55.20826172 475.0833252 -55.70996094 476.15454102 C-56.88089948 478.73729816 -57.94681229 481.36703073 -59 484 C-83.42 484 -107.84 484 -133 484 C-132.18749797 479.12498781 -131.25516174 475.75142184 -129.40795898 471.27954102 C-129.14446655 470.63641968 -128.88097412 469.99329834 -128.60949707 469.33068848 C-128.04030964 467.94318483 -127.46838061 466.55680329 -126.89398003 465.17144966 C-125.98404521 462.97482047 -125.0829925 460.77473865 -124.18434143 458.57347107 C-121.62921541 452.31837956 -119.06037689 446.06898506 -116.48071289 439.82397461 C-114.9000823 435.99574745 -113.33144519 432.16278379 -111.76997566 428.32670403 C-111.17453951 426.87084177 -110.57450954 425.41684923 -109.96972466 423.96484566 C-109.12279591 421.93091928 -108.29122877 419.89130938 -107.46264648 417.84985352 C-106.98601059 416.69324722 -106.50937469 415.53664093 -106.01829529 414.34498596 C-104.60897114 409.71551399 -104.27690121 405.78757674 -106.10717773 401.26293945 C-106.62739502 400.38855225 -107.1476123 399.51416504 -107.68359375 398.61328125 C-108.27390381 397.60612061 -108.86421387 396.59895996 -109.47241211 395.5612793 C-110.44513062 393.95313354 -110.44513062 393.95313354 -111.4375 392.3125 C-112.0982251 391.18561768 -112.7589502 390.05873535 -113.43969727 388.89770508 C-116.71466785 383.32690572 -120.08607168 377.82578681 -123.58164978 372.39064026 C-125.16398566 369.92770146 -126.72713009 367.45278145 -128.29104614 364.9781189 C-129.41026404 363.23003919 -130.56099924 361.50602297 -131.71459961 359.78051758 C-132.40561768 358.69150146 -133.09663574 357.60248535 -133.80859375 356.48046875 C-134.42532959 355.54098389 -135.04206543 354.60149902 -135.67749023 353.63354492 C-139.20789412 343.93389547 -136.91242229 334.87230754 -132.92578125 325.74609375 C-132.27896393 324.18791931 -132.27896393 324.18791931 -131.61907959 322.5982666 C-130.20425022 319.20224896 -128.75835596 315.82040917 -127.3125 312.4375 C-126.30990054 310.0441034 -125.30986092 307.64963303 -124.31225586 305.25415039 C-122.76660219 301.54534935 -121.21984837 297.83712241 -119.66175842 294.13352966 C-114.78602546 282.54191912 -110.06850831 270.88861296 -105.38146973 259.21957397 C-103.197828 253.78588316 -101.0046163 248.3560573 -98.8125 242.92578125 C-97.98175981 240.86670367 -97.15103033 238.80762176 -96.3203125 236.74853516 C-86.45241656 212.29593356 -76.50871607 187.87424459 -66.55551147 163.45626831 C-60.52002903 148.6494965 -54.49515497 133.83857106 -48.49649048 119.0168457 C-44.77096383 109.81292188 -41.02899636 100.6158993 -37.26953125 91.42578125 C-35.57545291 87.28388194 -33.88142438 83.14196227 -32.1875 79 C-31.76805115 77.97450043 -31.34860229 76.94900085 -30.91644287 75.89242554 C-23.76408231 58.39834284 -16.71366738 40.8649003 -9.73510742 23.30078125 C-9.3780925 22.40399658 -9.02107758 21.50721191 -8.65324402 20.58325195 C-7.99624361 18.93267333 -7.34067414 17.28152394 -6.68696594 15.62963867 C-4.58377433 10.3485172 -2.31306511 5.2043965 0 0 Z " fill="#FEFEFE" transform="translate(589,211)"/>
</svg>
