<svg xmlns="http://www.w3.org/2000/svg" xmlns:xlink="http://www.w3.org/1999/xlink" width="500" zoomAndPan="magnify" viewBox="0 0 375 374.999991" height="500" preserveAspectRatio="xMidYMid meet" version="1.0"><defs><clipPath id="086dd9668e"><path d="M 187.5 0 C 83.945312 0 0 83.945312 0 187.5 C 0 291.054688 83.945312 375 187.5 375 C 291.054688 375 375 291.054688 375 187.5 C 375 83.945312 291.054688 0 187.5 0 Z M 187.5 0 " clip-rule="nonzero"/></clipPath><clipPath id="bb3ad5df66"><path d="M 0 0 L 375 0 L 375 375 L 0 375 Z M 0 0 " clip-rule="nonzero"/></clipPath><clipPath id="dfb22aead7"><path d="M 187.5 0 C 83.945312 0 0 83.945312 0 187.5 C 0 291.054688 83.945312 375 187.5 375 C 291.054688 375 375 291.054688 375 187.5 C 375 83.945312 291.054688 0 187.5 0 Z M 187.5 0 " clip-rule="nonzero"/></clipPath><clipPath id="8b99deaebb"><rect x="0" width="375" y="0" height="375"/></clipPath><clipPath id="c2ea79188c"><path d="M 75 82.5 L 300 82.5 L 300 292.5 L 75 292.5 Z M 75 82.5 " clip-rule="nonzero"/></clipPath><clipPath id="4d534ff688"><path d="M 235.308594 82.5 L 189.023438 206.972656 L 142.214844 82.5 L 75 82.5 L 157.152344 292.5 L 217.847656 292.5 L 300 82.5 Z M 235.308594 82.5 " clip-rule="nonzero"/></clipPath><clipPath id="6fcbde4fd0"><path d="M 0 0.5 L 225 0.5 L 225 210.5 L 0 210.5 Z M 0 0.5 " clip-rule="nonzero"/></clipPath><clipPath id="48329c3634"><path d="M 160.308594 0.5 L 114.023438 124.972656 L 67.214844 0.5 L 0 0.5 L 82.152344 210.5 L 142.847656 210.5 L 225 0.5 Z M 160.308594 0.5 " clip-rule="nonzero"/></clipPath><clipPath id="61de8a38ca"><rect x="0" width="225" y="0" height="211"/></clipPath></defs><g clip-path="url(#086dd9668e)"><g transform="matrix(1, 0, 0, 1, 0, 0)"><g clip-path="url(#8b99deaebb)"><g clip-path="url(#bb3ad5df66)"><g clip-path="url(#dfb22aead7)"><rect x="-82.5" width="540" fill="#000000" height="539.999987" y="-82.499998" fill-opacity="1"/></g></g></g></g></g><g clip-path="url(#c2ea79188c)"><g clip-path="url(#4d534ff688)"><g transform="matrix(1, 0, 0, 1, 75, 82)"><g clip-path="url(#61de8a38ca)"><g clip-path="url(#6fcbde4fd0)"><g clip-path="url(#48329c3634)"><path fill="#ffffff" d="M 0 0.5 L 224.765625 0.5 L 224.765625 210.5 L 0 210.5 Z M 0 0.5 " fill-opacity="1" fill-rule="nonzero"/></g></g></g></g></g></g></svg>