<svg xmlns="http://www.w3.org/2000/svg" xmlns:xlink="http://www.w3.org/1999/xlink" width="500" zoomAndPan="magnify" viewBox="0 0 375 149.999998" height="200" preserveAspectRatio="xMidYMid meet" version="1.0"><defs><g/></defs><g fill="#000000" fill-opacity="1"><g transform="translate(7.476565, 99.374996)"><g><path d="M 17.09375 -46.171875 L 28.34375 -21.0625 L 39.59375 -46.171875 L 58.5 -46.171875 L 33.75 0 L 22.953125 0 L -1.796875 -46.171875 Z M 17.09375 -46.171875 "/></g></g></g><g fill="#000000" fill-opacity="1"><g transform="translate(64.169185, 99.374996)"><g><path d="M 6.921875 -71.90625 C 8.785156 -73.769531 11.003906 -74.703125 13.578125 -74.703125 C 16.160156 -74.703125 18.382812 -73.769531 20.25 -71.90625 C 22.113281 -70.050781 23.046875 -67.832031 23.046875 -65.25 C 23.046875 -62.664062 22.113281 -60.441406 20.25 -58.578125 C 18.382812 -56.722656 16.160156 -55.796875 13.578125 -55.796875 C 11.003906 -55.796875 8.785156 -56.722656 6.921875 -58.578125 C 5.066406 -60.441406 4.140625 -62.664062 4.140625 -65.25 C 4.140625 -67.832031 5.066406 -70.050781 6.921875 -71.90625 Z M 5.40625 -46.171875 L 5.40625 0 L 21.328125 0 L 21.328125 -46.171875 Z M 5.40625 -46.171875 "/></g></g></g><g fill="#000000" fill-opacity="1"><g transform="translate(91.345652, 99.374996)"><g><path d="M 25.46875 -47.515625 C 28.113281 -47.515625 30.722656 -47.210938 33.296875 -46.609375 C 35.878906 -46.015625 37.800781 -45.414062 39.0625 -44.8125 L 40.953125 -43.921875 L 35.734375 -33.484375 C 32.128906 -35.398438 28.707031 -36.359375 25.46875 -36.359375 C 23.664062 -36.359375 22.390625 -36.160156 21.640625 -35.765625 C 20.890625 -35.378906 20.515625 -34.644531 20.515625 -33.5625 C 20.515625 -33.320312 20.546875 -33.082031 20.609375 -32.84375 C 20.671875 -32.601562 20.789062 -32.378906 20.96875 -32.171875 C 21.144531 -31.960938 21.304688 -31.78125 21.453125 -31.625 C 21.609375 -31.476562 21.863281 -31.316406 22.21875 -31.140625 C 22.582031 -30.960938 22.867188 -30.828125 23.078125 -30.734375 C 23.296875 -30.640625 23.644531 -30.503906 24.125 -30.328125 C 24.601562 -30.148438 24.960938 -30.015625 25.203125 -29.921875 C 25.441406 -29.835938 25.84375 -29.703125 26.40625 -29.515625 C 26.976562 -29.335938 27.414062 -29.21875 27.71875 -29.15625 C 29.582031 -28.613281 31.203125 -28.015625 32.578125 -27.359375 C 33.960938 -26.703125 35.414062 -25.800781 36.9375 -24.65625 C 38.46875 -23.519531 39.65625 -22.082031 40.5 -20.34375 C 41.34375 -18.601562 41.765625 -16.625 41.765625 -14.40625 C 41.765625 -3.90625 34.472656 1.34375 19.890625 1.34375 C 16.585938 1.34375 13.453125 0.835938 10.484375 -0.171875 C 7.515625 -1.191406 5.367188 -2.210938 4.046875 -3.234375 L 2.0625 -4.859375 L 8.546875 -15.75 C 9.023438 -15.332031 9.65625 -14.835938 10.4375 -14.265625 C 11.21875 -13.691406 12.628906 -12.910156 14.671875 -11.921875 C 16.710938 -10.929688 18.484375 -10.4375 19.984375 -10.4375 C 23.285156 -10.4375 24.9375 -11.546875 24.9375 -13.765625 C 24.9375 -14.785156 24.515625 -15.582031 23.671875 -16.15625 C 22.828125 -16.726562 21.398438 -17.375 19.390625 -18.09375 C 17.378906 -18.8125 15.804688 -19.46875 14.671875 -20.0625 C 11.785156 -21.5625 9.503906 -23.253906 7.828125 -25.140625 C 6.148438 -27.035156 5.3125 -29.546875 5.3125 -32.671875 C 5.3125 -37.347656 7.125 -40.988281 10.75 -43.59375 C 14.382812 -46.207031 19.289062 -47.515625 25.46875 -47.515625 Z M 25.46875 -47.515625 "/></g></g></g><g fill="#000000" fill-opacity="1"><g transform="translate(135.619888, 99.374996)"><g><path d="M 29.96875 -34.46875 C 26.96875 -34.46875 24.382812 -33.359375 22.21875 -31.140625 C 20.0625 -28.921875 18.984375 -26.25 18.984375 -23.125 C 18.984375 -19.945312 20.0625 -17.25 22.21875 -15.03125 C 24.382812 -12.8125 26.96875 -11.703125 29.96875 -11.703125 C 31.40625 -11.703125 32.769531 -11.878906 34.0625 -12.234375 C 35.351562 -12.597656 36.300781 -12.957031 36.90625 -13.3125 L 37.703125 -13.859375 L 43.109375 -2.796875 C 42.691406 -2.492188 42.109375 -2.113281 41.359375 -1.65625 C 40.609375 -1.207031 38.894531 -0.597656 36.21875 0.171875 C 33.550781 0.953125 30.6875 1.34375 27.625 1.34375 C 20.84375 1.34375 14.882812 -1.035156 9.75 -5.796875 C 4.625 -10.566406 2.0625 -16.285156 2.0625 -22.953125 C 2.0625 -29.671875 4.625 -35.441406 9.75 -40.265625 C 14.882812 -45.097656 20.84375 -47.515625 27.625 -47.515625 C 30.6875 -47.515625 33.503906 -47.15625 36.078125 -46.4375 C 38.660156 -45.71875 40.492188 -45 41.578125 -44.28125 L 43.109375 -43.203125 L 37.703125 -32.3125 C 35.722656 -33.75 33.144531 -34.46875 29.96875 -34.46875 Z M 29.96875 -34.46875 "/></g></g></g><g fill="#000000" fill-opacity="1"><g transform="translate(179.624157, 99.374996)"><g><path d="M 5.40625 0 L 5.40625 -46.171875 L 21.328125 -46.171875 L 21.328125 -39.515625 L 21.515625 -39.515625 C 21.628906 -39.753906 21.820312 -40.050781 22.09375 -40.40625 C 22.363281 -40.769531 22.945312 -41.398438 23.84375 -42.296875 C 24.75 -43.203125 25.710938 -44.015625 26.734375 -44.734375 C 27.753906 -45.453125 29.070312 -46.09375 30.6875 -46.65625 C 32.3125 -47.226562 33.960938 -47.515625 35.640625 -47.515625 C 37.378906 -47.515625 39.085938 -47.273438 40.765625 -46.796875 C 42.453125 -46.316406 43.679688 -45.835938 44.453125 -45.359375 L 45.71875 -44.640625 L 39.0625 -31.140625 C 37.082031 -32.816406 34.320312 -33.65625 30.78125 -33.65625 C 28.863281 -33.65625 27.210938 -33.234375 25.828125 -32.390625 C 24.453125 -31.554688 23.476562 -30.539062 22.90625 -29.34375 C 22.332031 -28.144531 21.925781 -27.125 21.6875 -26.28125 C 21.445312 -25.4375 21.328125 -24.773438 21.328125 -24.296875 L 21.328125 0 Z M 5.40625 0 "/></g></g></g><g fill="#000000" fill-opacity="1"><g transform="translate(223.898382, 99.374996)"><g><path d="M 52.109375 -20.875 L 18.625 -20.875 C 18.625 -17.632812 19.675781 -15.234375 21.78125 -13.671875 C 23.882812 -12.117188 26.164062 -11.34375 28.625 -11.34375 C 31.195312 -11.34375 33.234375 -11.6875 34.734375 -12.375 C 36.234375 -13.0625 37.945312 -14.425781 39.875 -16.46875 L 51.390625 -10.703125 C 46.585938 -2.671875 38.609375 1.34375 27.453125 1.34375 C 20.492188 1.34375 14.519531 -1.035156 9.53125 -5.796875 C 4.550781 -10.566406 2.0625 -16.3125 2.0625 -23.03125 C 2.0625 -29.757812 4.550781 -35.519531 9.53125 -40.3125 C 14.519531 -45.113281 20.492188 -47.515625 27.453125 -47.515625 C 34.773438 -47.515625 40.726562 -45.398438 45.3125 -41.171875 C 49.90625 -36.941406 52.203125 -30.898438 52.203125 -23.046875 C 52.203125 -21.960938 52.171875 -21.238281 52.109375 -20.875 Z M 19.078125 -29.703125 L 36.625 -29.703125 C 36.269531 -32.097656 35.328125 -33.941406 33.796875 -35.234375 C 32.265625 -36.523438 30.300781 -37.171875 27.90625 -37.171875 C 25.257812 -37.171875 23.15625 -36.476562 21.59375 -35.09375 C 20.039062 -33.71875 19.203125 -31.921875 19.078125 -29.703125 Z M 19.078125 -29.703125 "/></g></g></g><g fill="#000000" fill-opacity="1"><g transform="translate(277.711336, 99.374996)"><g><path d="M 8.09375 -46.171875 L 8.09375 -63.359375 L 24.03125 -63.359375 L 24.03125 -46.171875 L 33.75 -46.171875 L 33.75 -34.015625 L 24.03125 -34.015625 L 24.03125 -19.34375 C 24.03125 -15.082031 25.226562 -12.953125 27.625 -12.953125 C 28.226562 -12.953125 28.859375 -13.070312 29.515625 -13.3125 C 30.179688 -13.5625 30.691406 -13.804688 31.046875 -14.046875 L 31.59375 -14.40625 L 35.546875 -1.53125 C 32.128906 0.382812 28.226562 1.34375 23.84375 1.34375 C 20.84375 1.34375 18.265625 0.820312 16.109375 -0.21875 C 13.953125 -1.269531 12.316406 -2.679688 11.203125 -4.453125 C 10.097656 -6.222656 9.300781 -8.082031 8.8125 -10.03125 C 8.332031 -11.976562 8.09375 -14.066406 8.09375 -16.296875 L 8.09375 -34.015625 L 1.4375 -34.015625 L 1.4375 -46.171875 Z M 8.09375 -46.171875 "/></g></g></g><g fill="#000000" fill-opacity="1"><g transform="translate(313.256729, 99.374996)"><g><path d="M 52.109375 -20.875 L 18.625 -20.875 C 18.625 -17.632812 19.675781 -15.234375 21.78125 -13.671875 C 23.882812 -12.117188 26.164062 -11.34375 28.625 -11.34375 C 31.195312 -11.34375 33.234375 -11.6875 34.734375 -12.375 C 36.234375 -13.0625 37.945312 -14.425781 39.875 -16.46875 L 51.390625 -10.703125 C 46.585938 -2.671875 38.609375 1.34375 27.453125 1.34375 C 20.492188 1.34375 14.519531 -1.035156 9.53125 -5.796875 C 4.550781 -10.566406 2.0625 -16.3125 2.0625 -23.03125 C 2.0625 -29.757812 4.550781 -35.519531 9.53125 -40.3125 C 14.519531 -45.113281 20.492188 -47.515625 27.453125 -47.515625 C 34.773438 -47.515625 40.726562 -45.398438 45.3125 -41.171875 C 49.90625 -36.941406 52.203125 -30.898438 52.203125 -23.046875 C 52.203125 -21.960938 52.171875 -21.238281 52.109375 -20.875 Z M 19.078125 -29.703125 L 36.625 -29.703125 C 36.269531 -32.097656 35.328125 -33.941406 33.796875 -35.234375 C 32.265625 -36.523438 30.300781 -37.171875 27.90625 -37.171875 C 25.257812 -37.171875 23.15625 -36.476562 21.59375 -35.09375 C 20.039062 -33.71875 19.203125 -31.921875 19.078125 -29.703125 Z M 19.078125 -29.703125 "/></g></g></g></svg>